:SAMPLES-PER-SECOND 30
:FULLY-SPECIFIED
:DEGREES
217
root  9.38784 38.9541 -2.66651 5.7083 80.5932 15.5074
RightUpLeg  -15.7477 -4.13479 -6.3314
RightLeg  31.9852 2.5461 1.49105
RightFoot  -2.15259 -0.612036 7.42099
RightToes  4.01633e-009 0 -3.6325e-017
Spine  6.50001 0.316537 -3.92259
Spine1  13.5463 -0.274173 -0.463933
HEad  -0.697126 1.36467 0.69312
LeftShoulder1  -0.0808121 3.75004 -26.6087
LeftArm  -5.83482 7.93959 -35.4264
LeftForeArm  73.9767 -79.4151 -82.9687
LeftHand  0.0280999 2.29385 -1.50091
RightShoulder  -0.241004 -4.25867 24.5472
RightArm  -13.2163 -16.3828 39.0364
RightForeArm  106.994 75.5787 130.084
RightHand  -0.0415028 -4.72676 -3.19376
LeftUpLeg  6.96835 7.45353 -3.72414
LeftLeg  17.5237 -0.00554274 -0.207424
LeftFoot  -12.6623 0.153434 6.68655
LeftToes  -1.95724e-009 9.62483e-011 3.51777e-011
218
root  10.6164 38.8587 -2.61153 9.08272 80.6055 18.6442
RightUpLeg  -15.5284 -5.2951 -6.16987
RightLeg  19.5853 2.1844 0.607396
RightFoot  -2.23394 -0.633476 7.74821
RightToes  4.01633e-009 0 -3.6325e-017
Spine  5.94394 0.232243 -3.92764
Spine1  13.8399 -0.225844 -0.271423
HEad  -1.21745 0.846667 0.655454
LeftShoulder1  -0.0298397 3.59481 -26.5969
LeftArm  -5.70386 7.1006 -35.5322
LeftForeArm  71.4078 -79.3402 -80.8305
LeftHand  0.0261959 2.45986 -1.22564
RightShoulder  -0.226109 -4.21303 24.4146
RightArm  -13.8611 -16.9749 39.4509
RightForeArm  108.917 75.1784 131.975
RightHand  -0.0542801 -4.13381 -3.12314
LeftUpLeg  9.36807 7.58115 -4.15167
LeftLeg  16.3253 -0.101557 -0.455708
LeftFoot  -14.0548 0.246207 6.81021
LeftToes  -1.95724e-009 9.62483e-011 3.51777e-011
219
root  11.9058 38.7304 -2.52043 12.1057 80.3177 21.5452
RightUpLeg  -14.6023 -6.35085 -5.79677
RightLeg  7.20789 2.80418 0.0762901
RightFoot  -2.09595 -0.662051 7.98858
RightToes  4.01633e-009 0 -3.6325e-017
Spine  5.1673 0.205061 -3.80773
Spine1  14.3101 -0.124648 -0.137143
HEad  -1.21803 1.11601 0.45468
LeftShoulder1  -0.0522325 3.6615 -26.9092
LeftArm  -5.59394 6.48244 -35.2693
LeftForeArm  69.9418 -79.292 -79.4369
LeftHand  0.0253498 2.54523 -1.22237
RightShoulder  -0.176062 -4.05578 24.1335
RightArm  -14.2174 -17.1515 39.9366
RightForeArm  110.05 75.1362 132.345
RightHand  -0.0466532 -4.2658 -2.61851
LeftUpLeg  12.1929 7.6498 -4.58439
LeftLeg  14.7507 -0.0496295 -0.701635
LeftFoot  -15.2761 0.331187 6.95599
LeftToes  -1.95724e-009 9.62483e-011 3.51777e-011
220
root  13.2608 38.498 -2.40154 16.354 80.0927 25.5131
RightUpLeg  -14.3696 -7.32224 -5.66444
RightLeg  -2.04884 4.31436 -0.119332
RightFoot  -3.14194 -0.653191 8.8744
RightToes  4.01633e-009 0 -3.6325e-017
Spine  4.06611 0.21816 -3.37579
Spine1  14.7898 0.167671 -0.57892
HEad  -1.01578 0.887177 -0.168993
LeftShoulder1  -0.0624802 3.6903 -27.3242
LeftArm  -5.38035 5.78193 -34.7922
LeftForeArm  68.0242 -79.2191 -77.6206
LeftHand  0.0243657 2.77152 -1.69649
RightShoulder  -0.209076 -4.16158 24.2455
RightArm  -13.9946 -16.9786 39.8255
RightForeArm  109.472 75.0899 132.394
RightHand  -0.0498379 -4.29323 -3.06228
LeftUpLeg  14.7791 7.65839 -5.1866
LeftLeg  13.5413 -0.0478835 -0.920198
LeftFoot  -16.8527 0.432585 6.87814
LeftToes  -1.95724e-009 9.62483e-011 3.51777e-011
221
root  14.6774 38.1272 -2.21813 19.9553 80.186 28.8972
RightUpLeg  -15.2317 -7.2121 -5.60898
RightLeg  -4.8146 4.65012 -0.256562
RightFoot  -5.22611 -0.565588 9.87483
RightToes  4.01633e-009 0 -3.6325e-017
Spine  3.19162 0.0940463 -3.0476
Spine1  14.9287 0.23713 -1.0655
HEad  -1.08214 0.900775 -0.653005
LeftShoulder1  -0.0576604 3.6767 -27.1538
LeftArm  -5.48318 5.71949 -34.8637
LeftForeArm  67.2417 -79.1868 -76.5906
LeftHand  0.0249521 2.57971 -1.56824
RightShoulder  -0.211876 -4.16841 24.3448
RightArm  -13.7644 -16.8662 39.6689
RightForeArm  109.712 75.0294 132.649
RightHand  -0.0473244 -4.45772 -3.13672
LeftUpLeg  16.999 7.94115 -5.31189
LeftLeg  13.6408 -0.724139 -1.09053
LeftFoot  -19.2108 0.56758 6.561
LeftToes  -1.95724e-009 9.62483e-011 3.51777e-011
222
root  16.162 37.7337 -2.00258 20.2163 80.3239 28.9566
RightUpLeg  -16.5901 -6.79027 -5.02168
RightLeg  -1.14646 3.21186 0.15596
RightFoot  -4.41825 -0.576969 8.81015
RightToes  4.01633e-009 0 -3.6325e-017
Spine  2.29744 0.0432447 -2.36543
Spine1  15.4272 0.120937 -0.971724
HEad  -1.10971 1.31806 -1.53041
LeftShoulder1  -0.0825763 3.75022 -27.3341
LeftArm  -5.77719 6.09852 -34.9872
LeftForeArm  68.0444 -79.2216 -77.2907
LeftHand  0.0231733 2.65051 -1.46718
RightShoulder  -0.182652 -4.07787 24.1114
RightArm  -13.1341 -16.0588 39.4142
RightForeArm  107.851 75.4143 130.894
RightHand  -0.0632632 -3.85635 -3.31737
LeftUpLeg  19.187 8.45942 -4.67814
LeftLeg  14.3689 -1.71 -1.17811
LeftFoot  -21.563 0.657282 5.91805
LeftToes  -1.95724e-009 9.62483e-011 3.51777e-011
223
root  17.7118 37.4202 -1.78629 19.2073 81.6208 28.2945
RightUpLeg  -17.0451 -6.98196 -4.21447
RightLeg  4.78356 1.25426 0.723575
RightFoot  -2.35009 -0.486569 6.8057
RightToes  4.01633e-009 0 -3.6325e-017
Spine  1.97307 -0.36892 -0.504694
Spine1  16.0685 -0.243755 -1.2975
HEad  -1.68633 1.44697 -1.86463
LeftShoulder1  -0.0777516 3.73575 -27.3445
LeftArm  -5.58606 6.36878 -34.9809
LeftForeArm  66.546 -79.1554 -75.9382
LeftHand  0.0213223 2.76941 -1.54178
RightShoulder  -0.234104 -4.2451 24.1742
RightArm  -12.6824 -15.8727 38.9287
RightForeArm  108.071 75.5058 130.592
RightHand  -0.0418753 -4.45686 -2.55198
LeftUpLeg  22.0289 8.26504 -3.50962
LeftLeg  14.9833 -2.83659 -0.849386
LeftFoot  -23.0973 0.614924 4.59475
LeftToes  -1.95724e-009 9.62483e-011 3.51777e-011
224
root  19.2083 37.4139 -1.53748 15.0272 85.0618 24.4754
RightUpLeg  -17.0916 -7.70714 -2.8103
RightLeg  9.68057 0.502834 0.883293
RightFoot  4.29307 0.0718748 -0.573268
RightToes  4.01633e-009 0 -3.6325e-017
Spine  1.95436 -1.43007 1.98984
Spine1  16.5939 -1.58405 -0.313388
HEad  -1.57807 0.946062 -2.22056
LeftShoulder1  -0.0833255 3.75293 -27.2564
LeftArm  -4.93284 6.92765 -35.0102
LeftForeArm  64.901 -79.0735 -74.4661
LeftHand  0.023236 2.40604 -1.54437
RightShoulder  -0.266166 -4.34065 24.5316
RightArm  -12.5237 -16.7215 38.3313
RightForeArm  108.644 75.377 131.188
RightHand  -0.0480692 -3.98586 -2.42927
LeftUpLeg  24.763 6.4857 -0.890522
LeftLeg  15.2182 -5.07551 -0.882132
LeftFoot  -22.5239 0.3979 2.70463
LeftToes  -1.95724e-009 9.62483e-011 3.51777e-011
225
root  20.7347 37.2363 -1.12262 -3.68076 85.8034 6.35484
RightUpLeg  -17.5967 -6.76517 -0.846951
RightLeg  15.7578 -6.75975e-005 -0.0644535
RightFoot  8.02245 0.247041 -1.1702
RightToes  4.01633e-009 0 -3.6325e-017
Spine  3.24973 -1.31002 3.96682
Spine1  15.6827 -1.52085 0.540367
HEad  -1.66774 0.47021 -2.48346
LeftShoulder1  -0.0912482 3.77261 -27.7807
LeftArm  -4.16803 7.08129 -34.8638
LeftForeArm  62.1499 -78.9206 -71.9493
LeftHand  0.0212334 2.46129 -1.45463
RightShoulder  -0.290661 -4.41772 24.6138
RightArm  -12.6705 -17.8768 37.8333
RightForeArm  109.136 75.1757 132.022
RightHand  -0.0349679 -4.98246 -2.90197
LeftUpLeg  26.2713 4.79341 1.56085
LeftLeg  18.6844 -5.69188 -1.75374
LeftFoot  -22.29 0.0444323 -0.899199
LeftToes  -1.95724e-009 9.62483e-011 3.51777e-011
226
root  22.3134 37.0953 -0.958382 -40.5044 85.583 -29.9292
RightUpLeg  -17.417 -7.92854 1.78243
RightLeg  21.7105 1.16257 0.263466
RightFoot  5.51941 0.527612 -3.29609
RightToes  4.01633e-009 0 -3.6325e-017
Spine  4.13132 -2.10931 10.0728
Spine1  15.412 -1.12931 -2.06544
HEad  -1.94254 0.434287 -2.50586
LeftShoulder1  -0.105954 3.8155 -27.8121
LeftArm  -4.15127 8.16958 -35.0826
LeftForeArm  61.8019 -78.8944 -71.3462
LeftHand  0.0178259 2.64423 -1.40018
RightShoulder  -0.250309 -4.28556 24.6532
RightArm  -12.1229 -17.8756 37.7434
RightForeArm  106.408 75.6524 129.674
RightHand  -0.0467183 -4.47359 -3.1271
LeftUpLeg  25.9156 3.40046 4.77331
LeftLeg  25.4941 -6.40141 -3.04916
LeftFoot  -20.1076 -0.291211 -5.56704
LeftToes  -1.95724e-009 9.62483e-011 3.51777e-011
227
root  23.6443 37.0011 -0.532004 -58.615 85.6392 -48.8086
RightUpLeg  -18.0741 -8.53455 3.03084
RightLeg  25.9583 0.495547 0.0243898
RightFoot  2.32303 0.506543 -4.09433
RightToes  4.01633e-009 0 -3.6325e-017
Spine  3.87876 -2.29158 10.3534
Spine1  15.5226 -1.55888 0.101595
HEad  -2.43544 0.575122 -2.83026
LeftShoulder1  -0.111182 3.82881 -28.032
LeftArm  -4.12385 8.36682 -35.1147
LeftForeArm  59.7037 -78.7398 -68.8897
LeftHand  0.0161275 3.0254 -1.64612
RightShoulder  -0.183443 -4.07459 24.4149
RightArm  -11.5781 -17.3369 37.8342
RightForeArm  102.603 75.9957 127.447
RightHand  -0.0521212 -4.58653 -4.49738
LeftUpLeg  20.8948 3.10742 7.65513
LeftLeg  36.0579 -7.58123 -5.51456
LeftFoot  -13.2174 -0.0569811 -10.3972
LeftToes  -1.95724e-009 9.62483e-011 3.51777e-011
228
root  24.8659 36.9787 -0.108739 -87.8365 85.2083 -78.8188
RightUpLeg  -17.9012 -9.55704 4.53272
RightLeg  28.5555 -0.762207 -0.689605
RightFoot  -0.836056 0.418378 -4.58531
RightToes  4.01633e-009 0 -3.6325e-017
Spine  3.72048 -2.5337 11.2156
Spine1  15.4579 -1.96234 1.69296
HEad  -3.30219 0.0148764 -2.13025
LeftShoulder1  -0.0493758 3.64918 -27.8463
LeftArm  -3.61217 6.65616 -35.3876
LeftForeArm  54.7317 -78.3014 -63.6587
LeftHand  0.0274196 2.72221 -1.88889
RightShoulder  -0.207512 -4.15021 24.542
RightArm  -11.9385 -16.6782 37.5042
RightForeArm  101.971 76.1002 126.849
RightHand  -0.0582744 -4.36078 -4.32158
LeftUpLeg  13.1922 1.29737 9.88358
LeftLeg  48.147 -5.70421 -6.26977
LeftFoot  -0.294394 0.962948 -11.2422
LeftToes  -1.95724e-009 9.62483e-011 3.51777e-011
229
root  26.0122 37.0061 0.160194 -112.183 83.6088 -103.066
RightUpLeg  -16.1966 -11.382 5.81177
RightLeg  29.7919 -1.36562 -1.09538
RightFoot  -3.61223 0.273317 -4.40372
RightToes  4.01633e-009 0 -3.6325e-017
Spine  4.33203 -2.96653 13.2766
Spine1  15.5462 -2.16279 2.25083
HEad  -3.82687 -1.35456 -2.06817
LeftShoulder1  0.00444108 3.49011 -27.6486
LeftArm  -2.66234 3.68582 -36.2078
LeftForeArm  47.844 -77.533 -57.3445
LeftHand  0.0105641 3.07943 -1.44229
RightShoulder  -0.197699 -4.12801 24.0681
RightArm  -12.7117 -15.9233 37.334
RightForeArm  100.759 76.319 125.582
RightHand  -0.0492522 -4.67988 -4.33674
LeftUpLeg  5.95542 -0.899182 11.213
LeftLeg  58.0243 -2.95246 -4.61185
LeftFoot  12.6832 1.28871 -6.1455
LeftToes  -1.95724e-009 9.62483e-011 3.51777e-011
230
root  27.1722 37.1839 0.40107 -120.95 82.8176 -111.561
RightUpLeg  -13.6558 -12.5048 5.96558
RightLeg  29.7252 -1.49799 -1.17903
RightFoot  -5.8313 0.167686 -4.30081
RightToes  4.01633e-009 0 -3.6325e-017
Spine  4.6442 -2.88546 14.6674
Spine1  15.8087 -1.66654 1.63715
HEad  -4.37869 -2.10356 -1.55883
LeftShoulder1  0.097652 3.21061 -27.0824
LeftArm  -1.92135 0.333965 -37.4137
LeftForeArm  40.4129 -76.3799 -50.3572
LeftHand  0.00642042 2.98111 -1.14094
RightShoulder  -0.1693 -4.04239 23.6305
RightArm  -13.8983 -14.3484 37.2472
RightForeArm  98.0167 77.0165 121.363
RightHand  -0.0369684 -4.73349 -2.4254
LeftUpLeg  0.208341 -1.75801 11.4447
LeftLeg  64.7025 -1.80879 -3.55837
LeftFoot  10.1421 0.740875 -4.21469
LeftToes  -1.95724e-009 9.62483e-011 3.51777e-011
231
root  28.3348 37.475 0.624927 -128.889 83.0551 -119.35
RightUpLeg  -10.9532 -13.6699 5.1313
RightLeg  29.0271 -1.39328 -1.09405
RightFoot  -7.29 0.100757 -4.23932
RightToes  4.01633e-009 0 -3.6325e-017
Spine  4.66458 -2.68766 14.5507
Spine1  15.9623 -1.29774 1.20822
HEad  -4.02552 -2.80196 -1.24334
LeftShoulder1  0.147717 3.05428 -26.6563
LeftArm  -1.38496 -2.80076 -38.0805
LeftForeArm  33.9744 -75.0047 -44.277
LeftHand  0.00618318 3.24403 -1.36404
RightShoulder  -0.137684 -3.94667 22.9956
RightArm  -14.1134 -11.5687 37.9211
RightForeArm  88.2322 77.9661 112.208
RightHand  -0.0351396 -4.92208 -2.50561
LeftUpLeg  -5.08037 -1.99376 10.2145
LeftLeg  67.748 -1.48356 -3.28002
LeftFoot  7.37508 0.442459 -2.98006
LeftToes  -1.95724e-009 9.62483e-011 3.51777e-011
